<?xml version="1.0" encoding="utf-8"?>
<!-- Generator: Adobe Illustrator 21.0.0, SVG Export Plug-In . SVG Version: 6.00 Build 0)  -->
<svg version="1.1" xmlns="http://www.w3.org/2000/svg" xmlns:xlink="http://www.w3.org/1999/xlink" x="0px" y="0px"
	 viewBox="0 0 800 625" style="enable-background:new 0 0 800 625;" xml:space="preserve">
<style type="text/css">
	.st0{display:none;}
	.st1{fill:none;stroke:#FF0DAF;stroke-width:7;stroke-miterlimit:10;}
	.st2{fill:none;stroke:#5C86FF;stroke-width:7;stroke-miterlimit:10;}
	.st3{fill:none;stroke:#4EFF9D;stroke-width:7;stroke-miterlimit:10;}
	.st4{fill:none;stroke:#FFA523;stroke-width:7;stroke-miterlimit:10;}
</style>
<g id="Layer_1" class="st0">
	
		<image style="display:inline;overflow:visible;" width="800" height="625" xlink:href="../samplemap.jpg"  transform="matrix(0.9984 0 0 0.9984 1.64 1)">
	</image>
</g>
<g id="Layer_2">
	<path class="st1" d="M718.5,469.5c19-7,35-29,33-43s-37-47-33-60s46-23,51-41s4-50-14-59s-90-16-90-16s-4-39-27-53s-98-26-128-24
		c-31.7,2.1-106,38-146,84c-32.5,37.4-96.9-3-128,1c-31,4-61,48-61,48s-142,30-137,97s109,66,109,66s19-28,46-27"/>
	<path class="st2" d="M193.5,442.5c12-2,35,12,39,21c3.3,7.4,191,0,191,0l295,6"/>
	<path class="st3" d="M193.5,442.5c12-2,35,12,39,21c3.3,7.4,191,0,191,0c28-31,26-17,28-31s0-49,29-58"/>
	<path class="st4" d="M466.5,589.5c63-13,170,42,252-115"/>
</g>
</svg>
